PathFileType	3	(X/Y/Z)	D:\VICON_DB\Goncalves\Pilot01\09-03-2026\bw_sq_120_01.trc
DataRate	CameraRate	NumFrames	NumMarkers	Units	OrigDataRate	OrigDataStartFrame	OrigNumFrames
200.0	200.0	6	34	mm	200.0	457	730	
Frame#	Time	LASI			RASI			LPSI			RPSI			LTHI			LTHAP			LTHAD			LKNE			LKNM			LTIB			LTIAP			LTIAD			LANK			LMED			LHEE			LTOE			LFMH			LSMH			LVMH			RTHI			RTHAP			RTHAD			RKNE			RKNM			RTIB			RTIAP			RTIAD			RANK			RMED			RHEE			RTOE			RFMH			RSMH			RVMH			
		X1	Y1	Z1	X2	Y2	Z2	X3	Y3	Z3	X4	Y4	Z4	X5	Y5	Z5	X6	Y6	Z6	X7	Y7	Z7	X8	Y8	Z8	X9	Y9	Z9	X10	Y10	Z10	X11	Y11	Z11	X12	Y12	Z12	X13	Y13	Z13	X14	Y14	Z14	X15	Y15	Z15	X16	Y16	Z16	X17	Y17	Z17	X18	Y18	Z18	X19	Y19	Z19	X20	Y20	Z20	X21	Y21	Z21	X22	Y22	Z22	X23	Y23	Z23	X24	Y24	Z24	X25	Y25	Z25	X26	Y26	Z26	X27	Y27	Z27	X28	Y28	Z28	X29	Y29	Z29	X30	Y30	Z30	X31	Y31	Z31	X32	Y32	Z32	X33	Y33	Z33	X34	Y34	Z34	
457	2.28	278.68134	534.43311	-1094.2179	279.34225	547.94843	-1355.7727				455.42133	634.71619	-1256.5385	272.68442	540.8562	-1027.0038	319.22821	549.14984	-1033.1906	251.73616	495.56528	-964.25824	128.83572	413.53067	-900.19812				185.61211	246.72153	-893.36169	79.426628	293.41232	-919.9707	154.67458	206.54633	-915.98132	282.57532	67.783249	-947.35303				315.73114	69.401062	-1003.4948	203.9391	70.415451	-951.12988	146.83405	46.110149	-972.43695				170.93678	26.209206	-896.17242	218.02982	490.18796	-1459.0095	283.20926	556.74634	-1402.7477	218.23026	540.35797	-1394.6576	105.34109	412.50122	-1481.4592				129.20538	248.13174	-1496.7633	54.877556	276.20663	-1455.6143	105.61932	207.77348	-1448.1185	271.62677	63.31221	-1454.3386				301.15723	64.986801	-1404.2003	182.24561	68.191086	-1449.4043	130.84564	49.190773	-1434.3287				156.45314	19.334057	-1503.4131
458	2.285	278.39294	537.19293	-1094.1907	278.80026	550.85632	-1355.8613				454.6698	638.52679	-1256.5629	271.83292	542.91736	-1026.806	318.5813	551.75122	-1033.0641	251.1684	497.27957	-964.16431	128.90579	413.95505	-900.38013				185.72646	246.82628	-893.44165	79.67292	293.59885	-920.16229	154.75661	206.64912	-916.0495	282.60291	67.782478	-947.30426				315.79166	69.3853	-1003.4166	203.98236	70.426743	-951.10242	146.86623	46.100838	-972.45093				170.93164	26.190954	-896.18024	217.43768	491.88153	-1458.9801	282.32324	559.17419	-1402.7837	217.23753	542.2301	-1394.7797	105.41296	413.09262	-1481.2197				129.40727	248.33476	-1496.6592	55.164314	276.44278	-1455.4556	105.80658	207.95772	-1448.0286	271.63885	63.308975	-1454.4141				301.18881	64.974121	-1404.3103	182.25098	68.202621	-1449.4409	130.86101	49.196686	-1434.3369				156.43227	19.295458	-1503.4401
459	2.29	278.09464	540.03754	-1094.1608	278.26901	553.82965	-1355.9689				453.91135	642.36578	-1256.5956	270.94629	545.00452	-1026.5859	317.90811	554.38818	-1032.9304	250.58386	499.02274	-964.04828	128.9882	414.39041	-900.54248				185.85246	246.93228	-893.51184	79.935768	293.79251	-920.33905	154.84465	206.75362	-916.10645	282.63135	67.781403	-947.2558				315.85114	69.371216	-1003.3408	204.02556	70.438324	-951.07385	146.89735	46.091675	-972.46509				170.92609	26.174625	-896.18683	216.85416	493.57767	-1458.9696	281.44394	561.61981	-1402.8427	216.24051	544.11835	-1394.9368	105.50623	413.69247	-1480.9949				129.62617	248.54498	-1496.5673	55.469185	276.69101	-1455.3135	106.00424	208.15265	-1447.9515	271.65277	63.303814	-1454.4882				301.22058	64.961983	-1404.42	182.25545	68.214569	-1449.4799	130.87622	49.20274	-1434.3474				156.41223	19.253584	-1503.4677
460	2.295	277.78659	542.96722	-1094.1281	277.75079	556.86749	-1356.0918				453.14755	646.22894	-1256.6359	270.02551	547.11493	-1026.3414	317.20926	557.05768	-1032.788	249.98349	500.7919	-963.9093	129.08357	414.8363	-900.68542				185.99106	247.04033	-893.57233	80.215561	293.99405	-920.50049	154.93945	206.86047	-916.15247	282.66052	67.780273	-947.20795				315.90939	69.359062	-1003.2682	204.06885	70.45034	-951.04413	146.92734	46.082901	-972.47943				170.92014	26.160431	-896.19208	216.27995	495.276	-1458.9783	280.57294	564.08209	-1402.9247	215.24004	546.02094	-1395.1284	105.62115	414.30133	-1480.7842				129.86197	248.7625	-1496.4869	55.792496	276.95184	-1455.1875	106.21271	208.35831	-1447.8867	271.66849	63.296631	-1454.5609				301.25262	64.950356	-1404.5287	182.25899	68.226898	-1449.5209	130.8912	49.208839	-1434.36				156.39301	19.208681	-1503.4961
461	2.3	277.46851	545.98206	-1094.0925	277.24704	559.96869	-1356.2245				452.38034	650.11401	-1256.6821	269.07162	549.24603	-1026.0704	316.48538	559.75696	-1032.6351	249.36845	502.58429	-963.74719	129.19244	415.29242	-900.80957				186.14299	247.15121	-893.6239	80.512657	294.2041	-920.64667	155.04178	206.97043	-916.18781	282.69046	67.779236	-947.16058				315.96628	69.3489	-1003.1992	204.11232	70.462898	-951.01331	146.95612	46.074734	-972.49384				170.91373	26.147888	-896.19641	215.71547	496.97632	-1459.006	279.71133	566.55969	-1403.0287	214.23682	547.93591	-1395.353	105.7577	414.91995	-1480.587				130.11443	248.98723	-1496.417	56.134453	277.22568	-1455.0763	106.43215	208.57455	-1447.8324	271.68591	63.287437	-1454.6321				301.28506	64.93911	-1404.6366	182.26167	68.239571	-1449.5637	130.90604	49.21492	-1434.3749				156.37457	19.161047	-1503.525
462	2.305	277.14005	549.08136	-1094.0549	276.75818	563.13239	-1356.3616				451.61166	654.0191	-1256.7324	268.08594	551.396	-1025.7709	315.7366	562.48254	-1032.4703	248.74011	504.39703	-963.56165	129.31532	415.75818	-900.91602				186.30907	247.26578	-893.66736	80.827431	294.42355	-920.77771	155.15244	207.08429	-916.21313	282.72119	67.778473	-947.11414				316.02185	69.340652	-1003.134	204.15587	70.476013	-950.98151	146.98366	46.067341	-972.50818				170.90685	26.135899	-896.20074	215.16087	498.67841	-1459.051	278.8598	569.05212	-1403.1541	213.2312	549.86145	-1395.609	105.91564	415.54907	-1480.402				130.38312	249.21887	-1496.3562	56.495178	277.51276	-1454.9783	106.66261	208.80116	-1447.787	271.70486	63.276344	-1454.7018				301.31802	64.928131	-1404.7432	182.26353	68.252556	-1449.6089	130.92079	49.220917	-1434.3916				156.35684	19.111086	-1503.5543
